<mxfile host="app.diagrams.net" agent="Mozilla/5.0 (Windows NT 10.0; Win64; x64) AppleWebKit/537.36 (KHTML, like Gecko) Chrome/128.0.0.0 Safari/537.36 Edg/128.0.0.0" version="24.7.13">
  <diagram name="Page-1" id="1NvH-y7TEMCyPQ8jifrG">
    <mxGraphModel dx="2056" dy="2292" grid="1" gridSize="10" guides="1" tooltips="1" connect="1" arrows="1" fold="1" page="1" pageScale="1" pageWidth="850" pageHeight="1100" math="0" shadow="0">
      <root>
        <mxCell id="0" />
        <mxCell id="1" parent="0" />
        <mxCell id="BULDakXjqyvBfwC28KaT-1" value="&lt;b style=&quot;font-size: 11px;&quot;&gt;Source stage&lt;/b&gt;" style="rounded=0;whiteSpace=wrap;html=1;fillColor=#f5f5f5;verticalAlign=top;align=left;shadow=1;fontColor=#333333;strokeColor=#666666;fontFamily=Roboto Mono;fontSource=https%3A%2F%2Ffonts.googleapis.com%2Fcss%3Ffamily%3DRoboto%2BMono;fontSize=11;" vertex="1" parent="1">
          <mxGeometry x="211.5" y="-370" width="1028.5" height="360" as="geometry" />
        </mxCell>
        <mxCell id="BULDakXjqyvBfwC28KaT-3" value="Bucket 2&amp;nbsp;&lt;div&gt;&lt;b&gt;(Deployment location)&lt;/b&gt;&lt;/div&gt;" style="sketch=0;outlineConnect=0;fontColor=#232F3E;gradientColor=none;fillColor=#7AA116;strokeColor=none;dashed=0;verticalLabelPosition=bottom;verticalAlign=top;align=center;html=1;fontSize=12;fontStyle=0;aspect=fixed;pointerEvents=1;shape=mxgraph.aws4.bucket;fontFamily=Roboto Mono;fontSource=https%3A%2F%2Ffonts.googleapis.com%2Fcss%3Ffamily%3DRoboto%2BMono;" vertex="1" parent="1">
          <mxGeometry x="701.9200000000001" y="490" width="48.08" height="50" as="geometry" />
        </mxCell>
        <mxCell id="BULDakXjqyvBfwC28KaT-4" value="" style="group;fontFamily=Roboto Mono;fontSource=https%3A%2F%2Ffonts.googleapis.com%2Fcss%3Ffamily%3DRoboto%2BMono;" vertex="1" connectable="0" parent="1">
          <mxGeometry x="660" y="635" width="550" height="295" as="geometry" />
        </mxCell>
        <mxCell id="BULDakXjqyvBfwC28KaT-5" value="&lt;div&gt;{&lt;/div&gt;&lt;div&gt;&lt;span style=&quot;white-space: normal;&quot;&gt;&lt;span style=&quot;white-space:pre&quot;&gt;&#x9;&lt;/span&gt;&quot;Version&quot;: &quot;2012-10-17&quot;,&lt;/span&gt;&lt;/div&gt;&lt;div&gt;&lt;span style=&quot;white-space: normal;&quot;&gt;&lt;span style=&quot;white-space:pre&quot;&gt;&#x9;&lt;/span&gt;&quot;Statement&quot;: [&lt;/span&gt;&lt;/div&gt;&lt;div&gt;&lt;span style=&quot;white-space: normal;&quot;&gt;&lt;span style=&quot;white-space:pre&quot;&gt;&#x9;&#x9;&lt;/span&gt;{&lt;/span&gt;&lt;/div&gt;&lt;div&gt;&lt;span style=&quot;white-space: normal;&quot;&gt;&lt;span style=&quot;white-space:pre&quot;&gt;&#x9;&#x9;&#x9;&lt;/span&gt;&quot;Sid&quot;: &quot;PublicReadGetObject&quot;,&lt;/span&gt;&lt;/div&gt;&lt;div&gt;&lt;span style=&quot;white-space: normal;&quot;&gt;&lt;span style=&quot;white-space:pre&quot;&gt;&#x9;&#x9;&#x9;&lt;/span&gt;&quot;Principal&quot;: &quot;*&quot;,&lt;/span&gt;&lt;/div&gt;&lt;div&gt;&lt;span style=&quot;white-space: normal;&quot;&gt;&lt;span style=&quot;white-space:pre&quot;&gt;&#x9;&#x9;&#x9;&lt;/span&gt;&quot;Effect&quot;: &quot;Allow&quot;,&lt;/span&gt;&lt;/div&gt;&lt;div&gt;&lt;span style=&quot;white-space: normal;&quot;&gt;&lt;span style=&quot;white-space:pre&quot;&gt;&#x9;&#x9;&#x9;&lt;/span&gt;&quot;Action&quot;: [&lt;/span&gt;&lt;/div&gt;&lt;div&gt;&lt;span style=&quot;white-space: normal;&quot;&gt;&lt;span style=&quot;white-space:pre&quot;&gt;&#x9;&#x9;&#x9;&lt;/span&gt;&amp;nbsp; &amp;nbsp; &quot;s3:GetObject&quot;&lt;/span&gt;&lt;/div&gt;&lt;div&gt;&lt;span style=&quot;white-space: normal;&quot;&gt;&lt;span style=&quot;white-space:pre&quot;&gt;&#x9;&#x9;&#x9;&lt;/span&gt;],&lt;/span&gt;&lt;/div&gt;&lt;div&gt;&lt;span style=&quot;white-space: normal;&quot;&gt;&lt;span style=&quot;white-space:pre&quot;&gt;&#x9;&#x9;&#x9;&lt;/span&gt;&quot;Resource&quot;: [&lt;/span&gt;&lt;/div&gt;&lt;div&gt;&lt;span style=&quot;white-space: normal;&quot;&gt;&lt;span style=&quot;white-space:pre&quot;&gt;&#x9;&#x9;&#x9;&lt;/span&gt;&amp;nbsp; &amp;nbsp; &quot;arn:aws:s3:::bucket-devops-prod3167/*&quot;&lt;/span&gt;&lt;/div&gt;&lt;div&gt;&lt;span style=&quot;white-space: normal;&quot;&gt;&lt;span style=&quot;white-space:pre&quot;&gt;&#x9;&#x9;&#x9;&lt;/span&gt;]&lt;/span&gt;&lt;/div&gt;&lt;div&gt;&lt;span style=&quot;white-space: normal;&quot;&gt;&lt;span style=&quot;white-space:pre&quot;&gt;&#x9;&#x9;&lt;/span&gt;}&lt;/span&gt;&lt;/div&gt;&lt;div&gt;&lt;span style=&quot;white-space: normal;&quot;&gt;&lt;span style=&quot;white-space:pre&quot;&gt;&#x9;&lt;/span&gt;]&lt;/span&gt;&lt;/div&gt;&lt;div&gt;}&lt;/div&gt;" style="text;html=1;align=left;verticalAlign=middle;whiteSpace=wrap;rounded=0;fillColor=#d5e8d4;strokeColor=#82b366;fontFamily=Roboto Mono;fontSource=https%3A%2F%2Ffonts.googleapis.com%2Fcss%3Ffamily%3DRoboto%2BMono;" vertex="1" parent="BULDakXjqyvBfwC28KaT-4">
          <mxGeometry width="550" height="295" as="geometry" />
        </mxCell>
        <mxCell id="BULDakXjqyvBfwC28KaT-6" value="" style="sketch=0;outlineConnect=0;fontColor=#232F3E;gradientColor=none;fillColor=#7AA116;strokeColor=none;dashed=0;verticalLabelPosition=bottom;verticalAlign=top;align=center;html=1;fontSize=12;fontStyle=0;aspect=fixed;pointerEvents=1;shape=mxgraph.aws4.policy;fontFamily=Roboto Mono;fontSource=https%3A%2F%2Ffonts.googleapis.com%2Fcss%3Ffamily%3DRoboto%2BMono;" vertex="1" parent="BULDakXjqyvBfwC28KaT-4">
          <mxGeometry x="15.714285714285737" y="102.6086956521739" width="62.777142857142856" height="53.919999999999995" as="geometry" />
        </mxCell>
        <mxCell id="BULDakXjqyvBfwC28KaT-7" value="&lt;div&gt;&lt;br&gt;&lt;/div&gt;&lt;div&gt;Static website hosting&lt;/div&gt;&lt;div&gt;&lt;br&gt;&lt;/div&gt;" style="html=1;shadow=0;dashed=0;shape=mxgraph.bootstrap.radioButton2;labelPosition=right;verticalLabelPosition=middle;align=left;verticalAlign=middle;gradientColor=none;fillColor=#3399FF;checked=0;spacing=5;checkedFill=#0085FC;checkedStroke=#ffffff;fontFamily=Roboto Mono;fontSource=https%3A%2F%2Ffonts.googleapis.com%2Fcss%3Ffamily%3DRoboto%2BMono;" vertex="1" parent="1">
          <mxGeometry x="660" y="590" width="10" height="10" as="geometry" />
        </mxCell>
        <mxCell id="BULDakXjqyvBfwC28KaT-8" value="&lt;div&gt;&lt;br&gt;&lt;/div&gt;&lt;div&gt;&lt;div&gt;Block public&amp;nbsp;&lt;span style=&quot;background-color: initial;&quot;&gt;access&lt;/span&gt;&lt;/div&gt;&lt;/div&gt;&lt;div&gt;&lt;br&gt;&lt;/div&gt;" style="html=1;shadow=0;dashed=0;shape=mxgraph.bootstrap.radioButton2;labelPosition=right;verticalLabelPosition=middle;align=left;verticalAlign=middle;gradientColor=none;fillColor=#FFFFFF;checked=0;spacing=5;checkedFill=#0085FC;checkedStroke=#ffffff;fontFamily=Roboto Mono;fontSource=https%3A%2F%2Ffonts.googleapis.com%2Fcss%3Ffamily%3DRoboto%2BMono;" vertex="1" parent="1">
          <mxGeometry x="660" y="612.5" width="10" height="10" as="geometry" />
        </mxCell>
        <mxCell id="BULDakXjqyvBfwC28KaT-10" value="Transition" style="shape=flexArrow;endArrow=classic;html=1;rounded=0;endWidth=13.68421052631579;endSize=14.414035087719297;width=15.789473684210526;fontFamily=Roboto Mono;fontSource=https%3A%2F%2Ffonts.googleapis.com%2Fcss%3Ffamily%3DRoboto%2BMono;" edge="1" parent="1">
          <mxGeometry x="-0.1667" width="50" height="50" relative="1" as="geometry">
            <mxPoint x="2530" y="-199" as="sourcePoint" />
            <mxPoint x="2710" y="-200" as="targetPoint" />
            <mxPoint as="offset" />
          </mxGeometry>
        </mxCell>
        <mxCell id="BULDakXjqyvBfwC28KaT-11" style="edgeStyle=orthogonalEdgeStyle;rounded=0;orthogonalLoop=1;jettySize=auto;html=1;fontFamily=Roboto Mono;fontSource=https%3A%2F%2Ffonts.googleapis.com%2Fcss%3Ffamily%3DRoboto%2BMono;" edge="1" parent="1">
          <mxGeometry relative="1" as="geometry">
            <mxPoint x="2600" y="-189" as="targetPoint" />
            <mxPoint x="2600" y="-39" as="sourcePoint" />
          </mxGeometry>
        </mxCell>
        <mxCell id="BULDakXjqyvBfwC28KaT-12" value="&lt;div&gt;Transitions, connect stages&lt;/div&gt;" style="text;html=1;align=center;verticalAlign=middle;whiteSpace=wrap;rounded=0;strokeColor=#d6b656;dashed=1;fillColor=#fff2cc;fontFamily=Roboto Mono;fontSource=https%3A%2F%2Ffonts.googleapis.com%2Fcss%3Ffamily%3DRoboto%2BMono;" vertex="1" parent="1">
          <mxGeometry x="2520" y="-19" width="160" height="30" as="geometry" />
        </mxCell>
        <mxCell id="BULDakXjqyvBfwC28KaT-13" value="Trigger pipeline execution&amp;nbsp;" style="edgeStyle=orthogonalEdgeStyle;rounded=0;orthogonalLoop=1;jettySize=auto;html=1;fontFamily=Roboto Mono;fontSource=https%3A%2F%2Ffonts.googleapis.com%2Fcss%3Ffamily%3DRoboto%2BMono;" edge="1" parent="1">
          <mxGeometry relative="1" as="geometry">
            <mxPoint x="-117.30681818181802" y="-239" as="sourcePoint" />
            <mxPoint x="265.88579431191397" y="-239.0434782608695" as="targetPoint" />
          </mxGeometry>
        </mxCell>
        <mxCell id="BULDakXjqyvBfwC28KaT-15" value="Transition" style="shape=flexArrow;endArrow=classic;html=1;rounded=0;endWidth=13.68421052631579;endSize=14.414035087719297;width=15.789473684210526;fontFamily=Roboto Mono;fontSource=https%3A%2F%2Ffonts.googleapis.com%2Fcss%3Ffamily%3DRoboto%2BMono;" edge="1" parent="1">
          <mxGeometry x="-0.1667" width="50" height="50" relative="1" as="geometry">
            <mxPoint x="1250" y="-199" as="sourcePoint" />
            <mxPoint x="1460" y="-200" as="targetPoint" />
            <mxPoint as="offset" />
          </mxGeometry>
        </mxCell>
        <mxCell id="BULDakXjqyvBfwC28KaT-19" value="Action Group 1" style="swimlane;startSize=20;fontFamily=Roboto Mono;fontSource=https%3A%2F%2Ffonts.googleapis.com%2Fcss%3Ffamily%3DRoboto%2BMono;fontSize=11;" vertex="1" parent="1">
          <mxGeometry x="233.38" y="-340" width="706.7" height="300" as="geometry">
            <mxRectangle x="340" y="-110" width="50" height="40" as="alternateBounds" />
          </mxGeometry>
        </mxCell>
        <mxCell id="BULDakXjqyvBfwC28KaT-20" value="Action 1 [Source]" style="swimlane;startSize=23;fontFamily=Roboto Mono;fontSource=https%3A%2F%2Ffonts.googleapis.com%2Fcss%3Ffamily%3DRoboto%2BMono;fontSize=11;" vertex="1" parent="BULDakXjqyvBfwC28KaT-19">
          <mxGeometry x="16.620000000000005" y="30" width="340.08" height="240" as="geometry">
            <mxRectangle x="-170" y="-320" width="70" height="30" as="alternateBounds" />
          </mxGeometry>
        </mxCell>
        <mxCell id="BULDakXjqyvBfwC28KaT-24" style="edgeStyle=orthogonalEdgeStyle;rounded=0;orthogonalLoop=1;jettySize=auto;html=1;fontFamily=Roboto Mono;fontSource=https%3A%2F%2Ffonts.googleapis.com%2Fcss%3Ffamily%3DRoboto%2BMono;fontSize=11;" edge="1" parent="BULDakXjqyvBfwC28KaT-20" source="BULDakXjqyvBfwC28KaT-25">
          <mxGeometry relative="1" as="geometry">
            <mxPoint x="170" y="90" as="targetPoint" />
          </mxGeometry>
        </mxCell>
        <mxCell id="BULDakXjqyvBfwC28KaT-25" value="This is where you stored your input artifacts for your pipeline. Choose the provider and then provide the connection details." style="text;html=1;align=center;verticalAlign=middle;whiteSpace=wrap;rounded=0;strokeColor=#d6b656;dashed=1;fillColor=#fff2cc;fontFamily=Roboto Mono;fontSource=https%3A%2F%2Ffonts.googleapis.com%2Fcss%3Ffamily%3DRoboto%2BMono;fontSize=9;" vertex="1" parent="BULDakXjqyvBfwC28KaT-20">
          <mxGeometry x="57.06" y="180" width="225.96" height="50" as="geometry" />
        </mxCell>
        <mxCell id="BULDakXjqyvBfwC28KaT-22" value="" style="sketch=0;points=[[0,0,0],[0.25,0,0],[0.5,0,0],[0.75,0,0],[1,0,0],[0,1,0],[0.25,1,0],[0.5,1,0],[0.75,1,0],[1,1,0],[0,0.25,0],[0,0.5,0],[0,0.75,0],[1,0.25,0],[1,0.5,0],[1,0.75,0]];outlineConnect=0;fontColor=#232F3E;fillColor=#C925D1;strokeColor=#ffffff;dashed=0;verticalLabelPosition=bottom;verticalAlign=top;align=center;html=1;fontSize=11;fontStyle=0;aspect=fixed;shape=mxgraph.aws4.resourceIcon;resIcon=mxgraph.aws4.codepipeline;fontFamily=Roboto Mono;fontSource=https%3A%2F%2Ffonts.googleapis.com%2Fcss%3Ffamily%3DRoboto%2BMono;" vertex="1" parent="BULDakXjqyvBfwC28KaT-20">
          <mxGeometry x="20" y="52" width="48" height="48" as="geometry" />
        </mxCell>
        <mxCell id="BULDakXjqyvBfwC28KaT-26" value="Action 2" style="swimlane;startSize=23;fontFamily=Roboto Mono;fontSource=https%3A%2F%2Ffonts.googleapis.com%2Fcss%3Ffamily%3DRoboto%2BMono;fontSize=11;" vertex="1" parent="BULDakXjqyvBfwC28KaT-19">
          <mxGeometry x="366.62" y="30" width="163.38" height="130" as="geometry">
            <mxRectangle x="-170" y="-320" width="70" height="30" as="alternateBounds" />
          </mxGeometry>
        </mxCell>
        <mxCell id="BULDakXjqyvBfwC28KaT-27" value="Action 3" style="swimlane;startSize=23;fontFamily=Roboto Mono;fontSource=https%3A%2F%2Ffonts.googleapis.com%2Fcss%3Ffamily%3DRoboto%2BMono;fontSize=11;" vertex="1" parent="BULDakXjqyvBfwC28KaT-19">
          <mxGeometry x="366.62" y="170" width="163.38" height="100" as="geometry">
            <mxRectangle x="-170" y="-320" width="70" height="30" as="alternateBounds" />
          </mxGeometry>
        </mxCell>
        <mxCell id="BULDakXjqyvBfwC28KaT-28" value="Action 4" style="swimlane;startSize=23;fontFamily=Roboto Mono;fontSource=https%3A%2F%2Ffonts.googleapis.com%2Fcss%3Ffamily%3DRoboto%2BMono;fontSize=11;" vertex="1" parent="BULDakXjqyvBfwC28KaT-19">
          <mxGeometry x="540" y="30" width="150" height="240" as="geometry">
            <mxRectangle x="-170" y="-320" width="70" height="30" as="alternateBounds" />
          </mxGeometry>
        </mxCell>
        <mxCell id="BULDakXjqyvBfwC28KaT-29" value="Action Group 2" style="swimlane;startSize=23;fontFamily=Roboto Mono;fontSource=https%3A%2F%2Ffonts.googleapis.com%2Fcss%3Ffamily%3DRoboto%2BMono;fontSize=11;" vertex="1" parent="1">
          <mxGeometry x="950" y="-340" width="250" height="300" as="geometry" />
        </mxCell>
        <mxCell id="BULDakXjqyvBfwC28KaT-30" value="&lt;b style=&quot;font-size: 11px;&quot;&gt;Build stage&lt;/b&gt;" style="rounded=0;whiteSpace=wrap;html=1;fillColor=#f5f5f5;verticalAlign=top;align=left;shadow=1;fontColor=#333333;strokeColor=#666666;fontFamily=Roboto Mono;fontSource=https%3A%2F%2Ffonts.googleapis.com%2Fcss%3Ffamily%3DRoboto%2BMono;fontSize=11;" vertex="1" parent="1">
          <mxGeometry x="1470" y="-370" width="1028.5" height="360" as="geometry" />
        </mxCell>
        <mxCell id="BULDakXjqyvBfwC28KaT-31" value="Action Group 1" style="swimlane;startSize=20;fontFamily=Roboto Mono;fontSource=https%3A%2F%2Ffonts.googleapis.com%2Fcss%3Ffamily%3DRoboto%2BMono;fontSize=11;" vertex="1" parent="1">
          <mxGeometry x="1491.88" y="-340" width="706.7" height="300" as="geometry">
            <mxRectangle x="340" y="-110" width="50" height="40" as="alternateBounds" />
          </mxGeometry>
        </mxCell>
        <mxCell id="BULDakXjqyvBfwC28KaT-32" value="Action 1 [Build]" style="swimlane;startSize=23;fontFamily=Roboto Mono;fontSource=https%3A%2F%2Ffonts.googleapis.com%2Fcss%3Ffamily%3DRoboto%2BMono;fontSize=11;" vertex="1" parent="BULDakXjqyvBfwC28KaT-31">
          <mxGeometry x="16.620000000000005" y="30" width="340.08" height="240" as="geometry">
            <mxRectangle x="-170" y="-320" width="70" height="30" as="alternateBounds" />
          </mxGeometry>
        </mxCell>
        <mxCell id="BULDakXjqyvBfwC28KaT-102" value="Code builder" style="text;html=1;align=center;verticalAlign=middle;whiteSpace=wrap;rounded=0;horizontal=0;" vertex="1" parent="BULDakXjqyvBfwC28KaT-32">
          <mxGeometry x="11.5" y="47.02999999999997" width="19" height="90" as="geometry" />
        </mxCell>
        <mxCell id="BULDakXjqyvBfwC28KaT-36" value="Action 2" style="swimlane;startSize=23;fontFamily=Roboto Mono;fontSource=https%3A%2F%2Ffonts.googleapis.com%2Fcss%3Ffamily%3DRoboto%2BMono;fontSize=11;" vertex="1" parent="BULDakXjqyvBfwC28KaT-31">
          <mxGeometry x="366.62" y="30" width="163.38" height="130" as="geometry">
            <mxRectangle x="-170" y="-320" width="70" height="30" as="alternateBounds" />
          </mxGeometry>
        </mxCell>
        <mxCell id="BULDakXjqyvBfwC28KaT-37" value="Action 3" style="swimlane;startSize=23;fontFamily=Roboto Mono;fontSource=https%3A%2F%2Ffonts.googleapis.com%2Fcss%3Ffamily%3DRoboto%2BMono;fontSize=11;" vertex="1" parent="BULDakXjqyvBfwC28KaT-31">
          <mxGeometry x="366.62" y="170" width="163.38" height="100" as="geometry">
            <mxRectangle x="-170" y="-320" width="70" height="30" as="alternateBounds" />
          </mxGeometry>
        </mxCell>
        <mxCell id="BULDakXjqyvBfwC28KaT-38" value="Action 4" style="swimlane;startSize=23;fontFamily=Roboto Mono;fontSource=https%3A%2F%2Ffonts.googleapis.com%2Fcss%3Ffamily%3DRoboto%2BMono;fontSize=11;" vertex="1" parent="BULDakXjqyvBfwC28KaT-31">
          <mxGeometry x="540" y="30" width="150" height="240" as="geometry">
            <mxRectangle x="-170" y="-320" width="70" height="30" as="alternateBounds" />
          </mxGeometry>
        </mxCell>
        <mxCell id="BULDakXjqyvBfwC28KaT-39" value="Action Group 2" style="swimlane;startSize=23;fontFamily=Roboto Mono;fontSource=https%3A%2F%2Ffonts.googleapis.com%2Fcss%3Ffamily%3DRoboto%2BMono;fontSize=11;" vertex="1" parent="1">
          <mxGeometry x="2208.5" y="-340" width="250" height="300" as="geometry" />
        </mxCell>
        <mxCell id="BULDakXjqyvBfwC28KaT-40" value="&lt;b style=&quot;font-size: 11px;&quot;&gt;Deploy stage&lt;/b&gt;" style="rounded=0;whiteSpace=wrap;html=1;fillColor=#f5f5f5;verticalAlign=top;align=left;shadow=1;fontColor=#333333;strokeColor=#666666;fontFamily=Roboto Mono;fontSource=https%3A%2F%2Ffonts.googleapis.com%2Fcss%3Ffamily%3DRoboto%2BMono;fontSize=11;" vertex="1" parent="1">
          <mxGeometry x="2740" y="-370" width="1028.5" height="360" as="geometry" />
        </mxCell>
        <mxCell id="BULDakXjqyvBfwC28KaT-41" value="Action Group 1" style="swimlane;startSize=20;fontFamily=Roboto Mono;fontSource=https%3A%2F%2Ffonts.googleapis.com%2Fcss%3Ffamily%3DRoboto%2BMono;fontSize=11;" vertex="1" parent="1">
          <mxGeometry x="2761.88" y="-340" width="706.7" height="300" as="geometry">
            <mxRectangle x="2761.88" y="-340" width="50" height="40" as="alternateBounds" />
          </mxGeometry>
        </mxCell>
        <mxCell id="BULDakXjqyvBfwC28KaT-42" value="Action 1 [Deploy]" style="swimlane;startSize=23;fontFamily=Roboto Mono;fontSource=https%3A%2F%2Ffonts.googleapis.com%2Fcss%3Ffamily%3DRoboto%2BMono;fontSize=11;" vertex="1" parent="BULDakXjqyvBfwC28KaT-41">
          <mxGeometry x="16.620000000000005" y="30" width="340.08" height="240" as="geometry">
            <mxRectangle x="16.620000000000005" y="30" width="70" height="30" as="alternateBounds" />
          </mxGeometry>
        </mxCell>
        <mxCell id="BULDakXjqyvBfwC28KaT-43" value="Action 2" style="swimlane;startSize=23;fontFamily=Roboto Mono;fontSource=https%3A%2F%2Ffonts.googleapis.com%2Fcss%3Ffamily%3DRoboto%2BMono;fontSize=11;" vertex="1" parent="BULDakXjqyvBfwC28KaT-41">
          <mxGeometry x="366.62" y="30" width="163.38" height="130" as="geometry">
            <mxRectangle x="-170" y="-320" width="70" height="30" as="alternateBounds" />
          </mxGeometry>
        </mxCell>
        <mxCell id="BULDakXjqyvBfwC28KaT-44" value="Action 3" style="swimlane;startSize=23;fontFamily=Roboto Mono;fontSource=https%3A%2F%2Ffonts.googleapis.com%2Fcss%3Ffamily%3DRoboto%2BMono;fontSize=11;" vertex="1" parent="BULDakXjqyvBfwC28KaT-41">
          <mxGeometry x="366.62" y="170" width="163.38" height="100" as="geometry">
            <mxRectangle x="-170" y="-320" width="70" height="30" as="alternateBounds" />
          </mxGeometry>
        </mxCell>
        <mxCell id="BULDakXjqyvBfwC28KaT-45" value="Action 4" style="swimlane;startSize=23;fontFamily=Roboto Mono;fontSource=https%3A%2F%2Ffonts.googleapis.com%2Fcss%3Ffamily%3DRoboto%2BMono;fontSize=11;" vertex="1" parent="BULDakXjqyvBfwC28KaT-41">
          <mxGeometry x="540" y="30" width="150" height="240" as="geometry">
            <mxRectangle x="-170" y="-320" width="70" height="30" as="alternateBounds" />
          </mxGeometry>
        </mxCell>
        <mxCell id="BULDakXjqyvBfwC28KaT-46" value="Action Group 2" style="swimlane;startSize=23;fontFamily=Roboto Mono;fontSource=https%3A%2F%2Ffonts.googleapis.com%2Fcss%3Ffamily%3DRoboto%2BMono;fontSize=11;" vertex="1" parent="1">
          <mxGeometry x="3478.5" y="-340" width="250" height="300" as="geometry" />
        </mxCell>
        <mxCell id="BULDakXjqyvBfwC28KaT-47" value="Deploy provider" style="edgeStyle=orthogonalEdgeStyle;rounded=0;orthogonalLoop=1;jettySize=auto;html=1;fontFamily=Roboto Mono;fontSource=https%3A%2F%2Ffonts.googleapis.com%2Fcss%3Ffamily%3DRoboto%2BMono;" edge="1" parent="1">
          <mxGeometry x="-0.21" y="-9" relative="1" as="geometry">
            <mxPoint x="3017.01" y="-241.34" as="sourcePoint" />
            <mxPoint x="2865.0842056880856" y="-241.3055172413793" as="targetPoint" />
            <mxPoint as="offset" />
          </mxGeometry>
        </mxCell>
        <mxCell id="BULDakXjqyvBfwC28KaT-48" value="" style="sketch=0;points=[[0,0,0],[0.25,0,0],[0.5,0,0],[0.75,0,0],[1,0,0],[0,1,0],[0.25,1,0],[0.5,1,0],[0.75,1,0],[1,1,0],[0,0.25,0],[0,0.5,0],[0,0.75,0],[1,0.25,0],[1,0.5,0],[1,0.75,0]];outlineConnect=0;fontColor=#232F3E;fillColor=#C925D1;strokeColor=#ffffff;dashed=0;verticalLabelPosition=bottom;verticalAlign=top;align=center;html=1;fontSize=12;fontStyle=0;aspect=fixed;shape=mxgraph.aws4.resourceIcon;resIcon=mxgraph.aws4.codepipeline;fontFamily=Roboto Mono;fontSource=https%3A%2F%2Ffonts.googleapis.com%2Fcss%3Ffamily%3DRoboto%2BMono;" vertex="1" parent="1">
          <mxGeometry x="3027" y="-264" width="48" height="48" as="geometry" />
        </mxCell>
        <mxCell id="BULDakXjqyvBfwC28KaT-49" style="edgeStyle=orthogonalEdgeStyle;rounded=0;orthogonalLoop=1;jettySize=auto;html=1;fontFamily=Roboto Mono;fontSource=https%3A%2F%2Ffonts.googleapis.com%2Fcss%3Ffamily%3DRoboto%2BMono;" edge="1" parent="1" source="BULDakXjqyvBfwC28KaT-50">
          <mxGeometry relative="1" as="geometry">
            <mxPoint x="2960" y="-240" as="targetPoint" />
            <Array as="points">
              <mxPoint x="2960" y="-194" />
              <mxPoint x="2961" y="-194" />
              <mxPoint x="2961" y="-240" />
            </Array>
          </mxGeometry>
        </mxCell>
        <mxCell id="BULDakXjqyvBfwC28KaT-50" value="&lt;div&gt;Choose how you deploy to instances. Choose the provider, and then provide the configuration details for that provider.&lt;/div&gt;&lt;div&gt;&lt;br&gt;&lt;/div&gt;" style="text;html=1;align=center;verticalAlign=middle;whiteSpace=wrap;rounded=0;strokeColor=#d6b656;dashed=1;fillColor=#fff2cc;fontFamily=Roboto Mono;fontSource=https%3A%2F%2Ffonts.googleapis.com%2Fcss%3Ffamily%3DRoboto%2BMono;" vertex="1" parent="1">
          <mxGeometry x="2800" y="-150" width="310" height="60" as="geometry" />
        </mxCell>
        <mxCell id="BULDakXjqyvBfwC28KaT-51" value="app" style="image;html=1;image=img/lib/clip_art/general/Full_Folder_128x128.png;fontFamily=Roboto Mono;fontSource=https%3A%2F%2Ffonts.googleapis.com%2Fcss%3Ffamily%3DRoboto%2BMono;" vertex="1" parent="1">
          <mxGeometry x="2880" y="-221.87" width="40" height="31" as="geometry" />
        </mxCell>
        <mxCell id="BULDakXjqyvBfwC28KaT-52" value="Bucket 2" style="sketch=0;outlineConnect=0;fontColor=#232F3E;gradientColor=none;fillColor=#7AA116;strokeColor=none;dashed=0;verticalLabelPosition=bottom;verticalAlign=top;align=center;html=1;fontSize=12;fontStyle=0;aspect=fixed;pointerEvents=1;shape=mxgraph.aws4.bucket;fontFamily=Roboto Mono;fontSource=https%3A%2F%2Ffonts.googleapis.com%2Fcss%3Ffamily%3DRoboto%2BMono;" vertex="1" parent="1">
          <mxGeometry x="2817" y="-266" width="48.08" height="50" as="geometry" />
        </mxCell>
        <mxCell id="BULDakXjqyvBfwC28KaT-53" value="CodeBuild" style="sketch=0;points=[[0,0,0],[0.25,0,0],[0.5,0,0],[0.75,0,0],[1,0,0],[0,1,0],[0.25,1,0],[0.5,1,0],[0.75,1,0],[1,1,0],[0,0.25,0],[0,0.5,0],[0,0.75,0],[1,0.25,0],[1,0.5,0],[1,0.75,0]];outlineConnect=0;fontColor=#232F3E;fillColor=#FF8000;strokeColor=#ffffff;dashed=0;verticalLabelPosition=top;verticalAlign=bottom;align=center;html=1;fontSize=12;fontStyle=0;aspect=fixed;shape=mxgraph.aws4.resourceIcon;resIcon=mxgraph.aws4.codebuild;fontFamily=Roboto Mono;fontSource=https%3A%2F%2Ffonts.googleapis.com%2Fcss%3Ffamily%3DRoboto%2BMono;horizontal=1;labelPosition=center;" vertex="1" parent="1">
          <mxGeometry x="1480" y="-612" width="72" height="72" as="geometry" />
        </mxCell>
        <mxCell id="BULDakXjqyvBfwC28KaT-54" value="CodeCommit&lt;div&gt;&lt;b&gt;Deprecated!&lt;/b&gt;&lt;/div&gt;" style="sketch=0;points=[[0,0,0],[0.25,0,0],[0.5,0,0],[0.75,0,0],[1,0,0],[0,1,0],[0.25,1,0],[0.5,1,0],[0.75,1,0],[1,1,0],[0,0.25,0],[0,0.5,0],[0,0.75,0],[1,0.25,0],[1,0.5,0],[1,0.75,0]];outlineConnect=0;fontColor=#232F3E;fillColor=#FF8000;strokeColor=#ffffff;dashed=0;verticalLabelPosition=bottom;verticalAlign=top;align=center;html=1;fontSize=12;fontStyle=0;aspect=fixed;shape=mxgraph.aws4.resourceIcon;resIcon=mxgraph.aws4.codecommit;fontFamily=Roboto Mono;fontSource=https%3A%2F%2Ffonts.googleapis.com%2Fcss%3Ffamily%3DRoboto%2BMono;" vertex="1" parent="1">
          <mxGeometry x="1210" y="-612" width="70" height="70" as="geometry" />
        </mxCell>
        <mxCell id="BULDakXjqyvBfwC28KaT-55" value="CodeDeploy" style="sketch=0;points=[[0,0,0],[0.25,0,0],[0.5,0,0],[0.75,0,0],[1,0,0],[0,1,0],[0.25,1,0],[0.5,1,0],[0.75,1,0],[1,1,0],[0,0.25,0],[0,0.5,0],[0,0.75,0],[1,0.25,0],[1,0.5,0],[1,0.75,0]];outlineConnect=0;fontColor=#232F3E;fillColor=#FF8000;strokeColor=#ffffff;dashed=0;verticalLabelPosition=bottom;verticalAlign=top;align=center;html=1;fontSize=12;fontStyle=0;aspect=fixed;shape=mxgraph.aws4.resourceIcon;resIcon=mxgraph.aws4.codedeploy;fontFamily=Roboto Mono;fontSource=https%3A%2F%2Ffonts.googleapis.com%2Fcss%3Ffamily%3DRoboto%2BMono;" vertex="1" parent="1">
          <mxGeometry x="1390" y="-612" width="70" height="70" as="geometry" />
        </mxCell>
        <mxCell id="BULDakXjqyvBfwC28KaT-56" value="CodePipeline" style="sketch=0;points=[[0,0,0],[0.25,0,0],[0.5,0,0],[0.75,0,0],[1,0,0],[0,1,0],[0.25,1,0],[0.5,1,0],[0.75,1,0],[1,1,0],[0,0.25,0],[0,0.5,0],[0,0.75,0],[1,0.25,0],[1,0.5,0],[1,0.75,0]];outlineConnect=0;fontColor=#232F3E;fillColor=#FF8000;strokeColor=#ffffff;dashed=0;verticalLabelPosition=bottom;verticalAlign=top;align=center;html=1;fontSize=12;fontStyle=0;aspect=fixed;shape=mxgraph.aws4.resourceIcon;resIcon=mxgraph.aws4.codepipeline;fontFamily=Roboto Mono;fontSource=https%3A%2F%2Ffonts.googleapis.com%2Fcss%3Ffamily%3DRoboto%2BMono;" vertex="1" parent="1">
          <mxGeometry x="1302" y="-612" width="70" height="70" as="geometry" />
        </mxCell>
        <mxCell id="BULDakXjqyvBfwC28KaT-57" value="AWS Developer Tools" style="text;html=1;align=center;verticalAlign=middle;whiteSpace=wrap;rounded=0;fontFamily=Roboto Mono;fontSource=https%3A%2F%2Ffonts.googleapis.com%2Fcss%3Ffamily%3DRoboto%2BMono;" vertex="1" parent="1">
          <mxGeometry x="1242" y="-670" width="278" height="30" as="geometry" />
        </mxCell>
        <mxCell id="BULDakXjqyvBfwC28KaT-74" value="" style="shape=image;html=1;verticalAlign=bottom;verticalLabelPosition=top;labelBackgroundColor=none;imageAspect=0;aspect=fixed;image=https://cdn1.iconfinder.com/data/icons/picons-social/57/github_rounded-128.png;labelPosition=center;align=center;fontFamily=Roboto Mono;fontSource=https%3A%2F%2Ffonts.googleapis.com%2Fcss%3Ffamily%3DRoboto%2BMono;fontSize=9;" vertex="1" parent="1">
          <mxGeometry x="535" y="-256.5" width="45" height="45" as="geometry" />
        </mxCell>
        <mxCell id="BULDakXjqyvBfwC28KaT-77" value="Developers&lt;div&gt;commit and push&lt;/div&gt;&lt;div&gt;changes to Github&lt;/div&gt;&lt;div&gt;repository remote&lt;/div&gt;" style="sketch=0;outlineConnect=0;fontColor=#232F3E;gradientColor=none;fillColor=#232F3D;strokeColor=none;dashed=0;verticalLabelPosition=bottom;verticalAlign=top;align=center;html=1;fontSize=12;fontStyle=0;aspect=fixed;pointerEvents=1;shape=mxgraph.aws4.users;" vertex="1" parent="1">
          <mxGeometry x="-190" y="-270.5" width="59" height="59" as="geometry" />
        </mxCell>
        <mxCell id="BULDakXjqyvBfwC28KaT-23" value="Source provider" style="edgeStyle=orthogonalEdgeStyle;rounded=0;orthogonalLoop=1;jettySize=auto;html=1;exitX=1;exitY=0.5;exitDx=0;exitDy=0;exitPerimeter=0;fontFamily=Roboto Mono;fontSource=https%3A%2F%2Ffonts.googleapis.com%2Fcss%3Ffamily%3DRoboto%2BMono;fontSize=11;entryX=0;entryY=0.5;entryDx=0;entryDy=0;" edge="1" parent="1" source="BULDakXjqyvBfwC28KaT-22" target="BULDakXjqyvBfwC28KaT-74">
          <mxGeometry x="-0.0662" y="10" relative="1" as="geometry">
            <mxPoint x="318.08" y="-238" as="targetPoint" />
            <mxPoint x="508.08" y="-238" as="sourcePoint" />
            <mxPoint as="offset" />
          </mxGeometry>
        </mxCell>
        <mxCell id="BULDakXjqyvBfwC28KaT-78" value="Filters: push: Include branches: main" style="text;html=1;align=left;verticalAlign=middle;whiteSpace=wrap;rounded=0;dashed=1;strokeColor=none;" vertex="1" parent="1">
          <mxGeometry x="-30" y="-222.37" width="200" height="10.87" as="geometry" />
        </mxCell>
        <mxCell id="BULDakXjqyvBfwC28KaT-101" style="edgeStyle=orthogonalEdgeStyle;rounded=0;orthogonalLoop=1;jettySize=auto;html=1;dashed=1;" edge="1" parent="1" source="BULDakXjqyvBfwC28KaT-79" target="BULDakXjqyvBfwC28KaT-100">
          <mxGeometry relative="1" as="geometry" />
        </mxCell>
        <mxCell id="BULDakXjqyvBfwC28KaT-79" value="" style="sketch=0;points=[[0,0,0],[0.25,0,0],[0.5,0,0],[0.75,0,0],[1,0,0],[0,1,0],[0.25,1,0],[0.5,1,0],[0.75,1,0],[1,1,0],[0,0.25,0],[0,0.5,0],[0,0.75,0],[1,0.25,0],[1,0.5,0],[1,0.75,0]];outlineConnect=0;fontColor=#232F3E;fillColor=#FF8000;strokeColor=#ffffff;dashed=0;verticalLabelPosition=top;verticalAlign=bottom;align=center;html=1;fontSize=12;fontStyle=0;aspect=fixed;shape=mxgraph.aws4.resourceIcon;resIcon=mxgraph.aws4.codebuild;fontFamily=Roboto Mono;fontSource=https%3A%2F%2Ffonts.googleapis.com%2Fcss%3Ffamily%3DRoboto%2BMono;horizontal=1;labelPosition=center;" vertex="1" parent="1">
          <mxGeometry x="1540" y="-255.93" width="75.93" height="75.93" as="geometry" />
        </mxCell>
        <mxCell id="BULDakXjqyvBfwC28KaT-83" value="&lt;span style=&quot;background-color: initial;&quot;&gt;(contains&amp;nbsp;&lt;/span&gt;&lt;b style=&quot;background-color: initial;&quot;&gt;buildspec.yaml&amp;nbsp;&lt;/b&gt;&lt;span style=&quot;background-color: initial;&quot;&gt;file for CodeBuild service)&amp;nbsp;&lt;/span&gt;" style="text;html=1;align=left;verticalAlign=middle;whiteSpace=wrap;rounded=0;fontSize=9;fontFamily=Roboto Mono;fontSource=https%3A%2F%2Ffonts.googleapis.com%2Fcss%3Ffamily%3DRoboto%2BMono;" vertex="1" parent="1">
          <mxGeometry x="780" y="-605" width="170" height="40" as="geometry" />
        </mxCell>
        <mxCell id="BULDakXjqyvBfwC28KaT-93" style="edgeStyle=orthogonalEdgeStyle;rounded=0;orthogonalLoop=1;jettySize=auto;html=1;dashed=1;" edge="1" parent="1" source="BULDakXjqyvBfwC28KaT-85" target="BULDakXjqyvBfwC28KaT-79">
          <mxGeometry relative="1" as="geometry" />
        </mxCell>
        <mxCell id="BULDakXjqyvBfwC28KaT-85" value="&lt;div style=&quot;text-align: left;&quot;&gt;&lt;span style=&quot;background-color: initial;&quot;&gt;- It uses &lt;/span&gt;&lt;b style=&quot;background-color: initial;&quot;&gt;Docker containers &lt;/b&gt;&lt;span style=&quot;background-color: initial;&quot;&gt;to launch your build environments&lt;/span&gt;&lt;/div&gt;&lt;span style=&quot;background-color: initial;&quot;&gt;&lt;div style=&quot;text-align: left;&quot;&gt;&lt;span style=&quot;background-color: initial;&quot;&gt;- It acts as a command line in your pipelines.&lt;/span&gt;&lt;/div&gt;&lt;div style=&quot;text-align: left;&quot;&gt;&lt;span style=&quot;background-color: initial;&quot;&gt;- You can use the Docker images CodeBuild provides as well as the images on Docker Hub and Amazon ECR&amp;nbsp;&lt;/span&gt;&lt;/div&gt;&lt;/span&gt;" style="whiteSpace=wrap;html=1;fontFamily=Roboto Mono;verticalAlign=middle;fillColor=#FF8000;strokeColor=#ffffff;fontColor=#232F3E;sketch=0;dashed=0;fontStyle=0;fontSource=https%3A%2F%2Ffonts.googleapis.com%2Fcss%3Ffamily%3DRoboto%2BMono;align=center;labelPosition=center;verticalLabelPosition=middle;spacingTop=0;spacing=5;" vertex="1" parent="1">
          <mxGeometry x="1443.5" y="160" width="271" height="123" as="geometry" />
        </mxCell>
        <mxCell id="BULDakXjqyvBfwC28KaT-86" style="edgeStyle=orthogonalEdgeStyle;rounded=0;orthogonalLoop=1;jettySize=auto;html=1;entryX=1;entryY=0.5;entryDx=0;entryDy=0;dashed=1;" edge="1" parent="1" source="BULDakXjqyvBfwC28KaT-89" target="BULDakXjqyvBfwC28KaT-85">
          <mxGeometry relative="1" as="geometry" />
        </mxCell>
        <mxCell id="BULDakXjqyvBfwC28KaT-87" value="inputs" style="edgeStyle=orthogonalEdgeStyle;rounded=0;orthogonalLoop=1;jettySize=auto;html=1;dashed=1;startArrow=classic;startFill=1;endArrow=none;endFill=0;fontFamily=Roboto Mono;fontSource=https%3A%2F%2Ffonts.googleapis.com%2Fcss%3Ffamily%3DRoboto%2BMono;fontSize=9;" edge="1" parent="1" source="BULDakXjqyvBfwC28KaT-89" target="BULDakXjqyvBfwC28KaT-90">
          <mxGeometry relative="1" as="geometry" />
        </mxCell>
        <mxCell id="BULDakXjqyvBfwC28KaT-88" value="produces" style="edgeStyle=orthogonalEdgeStyle;rounded=0;orthogonalLoop=1;jettySize=auto;html=1;dashed=1;fontFamily=Roboto Mono;fontSource=https%3A%2F%2Ffonts.googleapis.com%2Fcss%3Ffamily%3DRoboto%2BMono;fontSize=9;" edge="1" parent="1" source="BULDakXjqyvBfwC28KaT-89">
          <mxGeometry relative="1" as="geometry">
            <mxPoint x="1920.342105263158" y="350" as="targetPoint" />
          </mxGeometry>
        </mxCell>
        <mxCell id="BULDakXjqyvBfwC28KaT-89" value="&lt;b style=&quot;font-size: 9px;&quot;&gt;buildspec.yaml&lt;/b&gt;&lt;div style=&quot;font-size: 9px;&quot;&gt;Define commands and settings&lt;/div&gt;&lt;div style=&quot;font-size: 9px;&quot;&gt;for your CodeBuild&amp;nbsp;&lt;/div&gt;&lt;div style=&quot;font-size: 9px;&quot;&gt;(store in the source code root directory repo)&lt;/div&gt;" style="verticalLabelPosition=middle;html=1;verticalAlign=middle;align=left;strokeColor=none;fillColor=#00BEF2;shape=mxgraph.azure.file_2;pointerEvents=1;labelPosition=right;fontFamily=Roboto Mono;fontSource=https%3A%2F%2Ffonts.googleapis.com%2Fcss%3Ffamily%3DRoboto%2BMono;fontSize=9;" vertex="1" parent="1">
          <mxGeometry x="1896.5" y="196.5" width="47.5" height="50" as="geometry" />
        </mxCell>
        <mxCell id="BULDakXjqyvBfwC28KaT-90" value="&lt;div style=&quot;font-size: 9px;&quot;&gt;&lt;b style=&quot;font-size: 9px;&quot;&gt;Commands&lt;/b&gt;&lt;/div&gt;- install&lt;div style=&quot;font-size: 9px;&quot;&gt;- pre_build&lt;/div&gt;&lt;div style=&quot;font-size: 9px;&quot;&gt;- build&lt;/div&gt;&lt;div style=&quot;font-size: 9px;&quot;&gt;- post_build&lt;/div&gt;" style="text;html=1;align=left;verticalAlign=middle;whiteSpace=wrap;rounded=0;fontFamily=Roboto Mono;fontSource=https%3A%2F%2Ffonts.googleapis.com%2Fcss%3Ffamily%3DRoboto%2BMono;fontSize=9;" vertex="1" parent="1">
          <mxGeometry x="1884.63" y="50" width="71.25" height="78.5" as="geometry" />
        </mxCell>
        <mxCell id="BULDakXjqyvBfwC28KaT-104" value="Extract= true" style="edgeStyle=orthogonalEdgeStyle;rounded=0;orthogonalLoop=1;jettySize=auto;html=1;dashed=1;" edge="1" parent="1" source="BULDakXjqyvBfwC28KaT-91">
          <mxGeometry relative="1" as="geometry">
            <mxPoint x="2962.1052631578946" y="-70" as="targetPoint" />
          </mxGeometry>
        </mxCell>
        <mxCell id="BULDakXjqyvBfwC28KaT-91" value="&lt;div&gt;Build&lt;/div&gt;artifact" style="shape=folder;fontStyle=1;spacingTop=10;tabWidth=40;tabHeight=14;tabPosition=left;html=1;whiteSpace=wrap;fillColor=#FFFF66;fontFamily=Roboto Mono;fontSource=https%3A%2F%2Ffonts.googleapis.com%2Fcss%3Ffamily%3DRoboto%2BMono;fontSize=9;" vertex="1" parent="1">
          <mxGeometry x="1895.88" y="360" width="60" height="50" as="geometry" />
        </mxCell>
        <mxCell id="BULDakXjqyvBfwC28KaT-92" value="You can use this output artifacts as a inputs to the next stages" style="text;html=1;align=left;verticalAlign=middle;whiteSpace=wrap;rounded=0;fontFamily=Roboto Mono;fontSource=https%3A%2F%2Ffonts.googleapis.com%2Fcss%3Ffamily%3DRoboto%2BMono;fontSize=9;" vertex="1" parent="1">
          <mxGeometry x="1840" y="420" width="190.62" height="30" as="geometry" />
        </mxCell>
        <mxCell id="BULDakXjqyvBfwC28KaT-94" value="" style="sketch=0;points=[[0,0,0],[0.25,0,0],[0.5,0,0],[0.75,0,0],[1,0,0],[0,1,0],[0.25,1,0],[0.5,1,0],[0.75,1,0],[1,1,0],[0,0.25,0],[0,0.5,0],[0,0.75,0],[1,0.25,0],[1,0.5,0],[1,0.75,0]];points=[[0,0,0],[0.25,0,0],[0.5,0,0],[0.75,0,0],[1,0,0],[0,1,0],[0.25,1,0],[0.5,1,0],[0.75,1,0],[1,1,0],[0,0.25,0],[0,0.5,0],[0,0.75,0],[1,0.25,0],[1,0.5,0],[1,0.75,0]];outlineConnect=0;fontColor=#232F3E;fillColor=#E7157B;strokeColor=#ffffff;dashed=0;verticalLabelPosition=bottom;verticalAlign=top;align=center;html=1;fontSize=12;fontStyle=0;aspect=fixed;shape=mxgraph.aws4.resourceIcon;resIcon=mxgraph.aws4.cloudwatch_2;" vertex="1" parent="1">
          <mxGeometry x="1720" y="-440" width="50" height="50" as="geometry" />
        </mxCell>
        <mxCell id="BULDakXjqyvBfwC28KaT-95" value="" style="edgeStyle=orthogonalEdgeStyle;rounded=0;orthogonalLoop=1;jettySize=auto;html=1;entryX=0.5;entryY=1;entryDx=0;entryDy=0;entryPerimeter=0;dashed=1;labelBackgroundColor=default;" edge="1" parent="1" source="BULDakXjqyvBfwC28KaT-79" target="BULDakXjqyvBfwC28KaT-94">
          <mxGeometry x="-0.441" relative="1" as="geometry">
            <mxPoint as="offset" />
          </mxGeometry>
        </mxCell>
        <mxCell id="BULDakXjqyvBfwC28KaT-96" value="Option 3: Logs in&lt;div style=&quot;font-size: 9px;&quot;&gt;CloudWatch &lt;b&gt;group name&lt;/b&gt;&lt;/div&gt;" style="text;html=1;align=center;verticalAlign=middle;whiteSpace=wrap;rounded=0;fontSize=9;fontFamily=Roboto Mono;fontSource=https%3A%2F%2Ffonts.googleapis.com%2Fcss%3Ffamily%3DRoboto%2BMono;" vertex="1" parent="1">
          <mxGeometry x="1695" y="-490" width="100" height="50" as="geometry" />
        </mxCell>
        <mxCell id="BULDakXjqyvBfwC28KaT-97" value="Option 1: Logs in&lt;div style=&quot;font-size: 9px;&quot;&gt;&lt;b&gt;pipeline execution details&lt;/b&gt;&lt;/div&gt;" style="text;html=1;align=center;verticalAlign=middle;whiteSpace=wrap;rounded=0;fontSize=9;fontFamily=Roboto Mono;fontSource=https%3A%2F%2Ffonts.googleapis.com%2Fcss%3Ffamily%3DRoboto%2BMono;" vertex="1" parent="1">
          <mxGeometry x="244" y="-550" width="100" height="50" as="geometry" />
        </mxCell>
        <mxCell id="BULDakXjqyvBfwC28KaT-98" style="edgeStyle=orthogonalEdgeStyle;rounded=0;orthogonalLoop=1;jettySize=auto;html=1;entryX=0.5;entryY=1;entryDx=0;entryDy=0;dashed=1;" edge="1" parent="1" source="BULDakXjqyvBfwC28KaT-22" target="BULDakXjqyvBfwC28KaT-97">
          <mxGeometry relative="1" as="geometry" />
        </mxCell>
        <mxCell id="BULDakXjqyvBfwC28KaT-100" value="Option 2: Logs in&lt;div style=&quot;font-size: 9px;&quot;&gt;CodeBuilder &lt;b&gt;build history&lt;/b&gt;&lt;/div&gt;" style="text;html=1;align=center;verticalAlign=middle;whiteSpace=wrap;rounded=0;fontSize=9;fontFamily=Roboto Mono;fontSource=https%3A%2F%2Ffonts.googleapis.com%2Fcss%3Ffamily%3DRoboto%2BMono;" vertex="1" parent="1">
          <mxGeometry x="1527.96" y="-480" width="100" height="50" as="geometry" />
        </mxCell>
        <mxCell id="BULDakXjqyvBfwC28KaT-105" value="&lt;div&gt;Artifact produces by CodeBuild is passed to Deploy Stage&lt;/div&gt;" style="text;html=1;align=left;verticalAlign=middle;whiteSpace=wrap;rounded=0;strokeColor=#d6b656;dashed=1;fillColor=#fff2cc;fontFamily=Roboto Mono;fontSource=https%3A%2F%2Ffonts.googleapis.com%2Fcss%3Ffamily%3DRoboto%2BMono;" vertex="1" parent="1">
          <mxGeometry x="2640" y="128.5" width="300" height="31.5" as="geometry" />
        </mxCell>
        <mxCell id="BULDakXjqyvBfwC28KaT-106" value="Github&amp;nbsp;&lt;div style=&quot;font-size: 9px;&quot;&gt;repository&lt;/div&gt;" style="shape=image;html=1;verticalAlign=bottom;verticalLabelPosition=top;labelBackgroundColor=none;imageAspect=0;aspect=fixed;image=https://cdn1.iconfinder.com/data/icons/picons-social/57/github_rounded-128.png;labelPosition=center;align=center;fontFamily=Roboto Mono;fontSource=https%3A%2F%2Ffonts.googleapis.com%2Fcss%3Ffamily%3DRoboto%2BMono;fontSize=9;" vertex="1" parent="1">
          <mxGeometry x="720" y="-610" width="45" height="45" as="geometry" />
        </mxCell>
        <mxCell id="BULDakXjqyvBfwC28KaT-108" value="&lt;b&gt;Source Stage &lt;/b&gt;builds or generate a &lt;i&gt;source artifact&lt;/i&gt; and next&amp;nbsp;&lt;b&gt;Build Stage (CodeBuild) &lt;/b&gt;takes this built artifact as its input" style="edgeStyle=orthogonalEdgeStyle;rounded=0;orthogonalLoop=1;jettySize=auto;html=1;exitX=0.5;exitY=1;exitDx=0;exitDy=0;dashed=1;" edge="1" parent="1" source="BULDakXjqyvBfwC28KaT-109">
          <mxGeometry relative="1" as="geometry">
            <mxPoint x="419.9999999999995" y="40" as="sourcePoint" />
            <mxPoint x="1700" y="-70" as="targetPoint" />
            <Array as="points">
              <mxPoint x="420" y="60" />
              <mxPoint x="1700" y="60" />
            </Array>
          </mxGeometry>
        </mxCell>
        <mxCell id="BULDakXjqyvBfwC28KaT-110" value="produces" style="edgeStyle=orthogonalEdgeStyle;rounded=0;orthogonalLoop=1;jettySize=auto;html=1;exitX=0.5;exitY=1;exitDx=0;exitDy=0;dashed=1;labelBackgroundColor=none;fontSize=9;fontFamily=Roboto Mono;fontSource=https%3A%2F%2Ffonts.googleapis.com%2Fcss%3Ffamily%3DRoboto%2BMono;" edge="1" parent="1">
          <mxGeometry x="0.1429" y="10" relative="1" as="geometry">
            <mxPoint x="421.03999999999996" y="-70" as="sourcePoint" />
            <mxPoint x="421.03999999999996" as="targetPoint" />
            <Array as="points" />
            <mxPoint as="offset" />
          </mxGeometry>
        </mxCell>
        <mxCell id="BULDakXjqyvBfwC28KaT-109" value="&lt;div&gt;Source&lt;/div&gt;artifact" style="shape=folder;fontStyle=1;spacingTop=10;tabWidth=40;tabHeight=14;tabPosition=left;html=1;whiteSpace=wrap;fillColor=#FFFF66;fontFamily=Roboto Mono;fontSource=https%3A%2F%2Ffonts.googleapis.com%2Fcss%3Ffamily%3DRoboto%2BMono;fontSize=9;" vertex="1" parent="1">
          <mxGeometry x="392.54" width="55" height="50" as="geometry" />
        </mxCell>
        <mxCell id="BULDakXjqyvBfwC28KaT-112" value="" style="shape=image;verticalLabelPosition=bottom;labelBackgroundColor=default;verticalAlign=top;aspect=fixed;imageAspect=0;image=data:image/png,iVBORw0KGgoAAAANSUhEUgAAAHgAAABrCAYAAAC8JkbnAAAAAXNSR0IArs4c6QAAIABJREFUeF7lXXm8HFWV/k7VrX5hxxEQl4QlXe+FyBIVCbKJCigKwihhCRK6XzDgAKIjIsIgi0qQgRkXUAnJqw6IQUBnhm3YlE0dEQYNRMh73QGBoAiCiXlZXtdyJqdevaS7lq7qfl2PP+b+836/1/eee+qeW3XPPct3CG9i619e39fTtTOIeD8wigC2aGDnryA8ToxHPPBDlaLxGIj4TWR309QXM2sv1ZyZ7OFQ0nAIA/sC2KGBt/VMqBLot+R41w1MKzzxZvFNb8bEpWp9f4C+Q8B+2eenFQRe6ClVqexGr2Qf172e857ht9d1p0wazQV496yUGfgtMX/e6i08lnVMt/pNuIBLQ/VziOhKAIUOH8IGkeW6+mU39NHLHdJoa1i5xpOZ3YsJfCoA1dbgzZ3rzHxupbfwvQ7HdzRsQgVcrtr/BuCLHXEaHbQehGtHDHX5j3ehv3WJZhOZucv4H3gL50L28E8AJnVlDsJVVtH4cldoZSAyYQIuDTmzifimDDy12+Uv5NF5A33qhnYHtupfqjpHE/gHAN7ZTbo+LY9KVp9a3HW6MQQnRMD9yzf0sa4/CWDLGB5Wg1CBizvZc2qKQEz6jh6wNzR8EKCPAtgxbTEY+CmUOmu857Ocs07B+T4zjk2bE8BrBL4HwMOeh6cI7uvswSNNFaHjaDDkk75dDJ21GrkzFhUn1TLMMa4uEyLgUrX+IwKdHOaUCL9yXHVCq7N01jIubNPjHgviecz4SMrTvsqMz1R6jfs7WZVy1ZbN9KOQRhxH6n6AFgyP6LffuifVk+aaM8jv1DXnFgAHRPoQL7aKhVInfLYzJncBn1rdMFWDvjxGOVleh5p5k0l/z8qwaN8EunzjG/OhFmPkKnXlcFFdeCuRm4k2M5VqznkECG2txZhfA7jAMo2HM9EF8E/LeOv1Pc5vALw7NMbVyJ2W91ucu4DLNfvbYJwTejjPdb333DCt56msC9XYr7/qfJLhXQPQ5Bbj7x8pqBPSFDBfkZrk3NL668AvgrUzrV51Zyf8zq3W3+OB/hdA83pPgMKVv4CrThVgMWI0ttss05jVyWKNjZn3J97SXut8DYBopAlvHdVYcz5emTqpGjdXeXD97tDUXQCmJfDCILqeHP3cgWm0Zjz8lqv2fwI4JkRjuWUae4yHbtrYXAU859kNvbrSByNMeDjc6jMeSGMuy++nDtof0TSIdv62hP6vgvmTYSNDf9X+AAP/laTAMeHPGnDyQNF4MAsfaX36B50jWeO7w/08uMXF5qQVaeM7/T1XAfcP1c9gIrlqNLY1wyNqh1bKSbsPI5qvbThLANG6Y9t6MB0/9oktV51jAL65xd32IVbqpPFq5I2clJ7nSeQ4r4dvEuzxvEpf4fp2nzlr/1wFHHv+Eu62isYnsjKYtd/FD7J6cbIzH4xzE8bUiWk2CDqDRVM2YvsRrhyeqi7IrKBlZRBAqWrfS8ARTUMIV1tFI4nnNqjHd81bwHeDceREPlCpWu8n0A8TBOiBwGDoMcvhEPPZA70FGZtLK9fs74Dx+RDx2y3TCJ/NXZs/XwFX7SEAZhO3zGdYvYXruvYEMYSC+6zcP7fNOM9qZszq9P6ccQ70D9bPZI2uCfV/1jKN6VlptNsvbwG/GlFimI7u9LrRzsOVhuoziOi+DFawv7DjHV7Zo+fpduh30rc06BxLGv9HaOyfLNPovjk0mCRvAQ8D2KrpgVx8xJpm/KKTBWp3TGlwZBpp2qNJlikC/ubCO3ix2fOHdml30j/4sohps7GtskzjLZ3QyzImbwE7QPN5R8ABA6bxP1mYG28fuQqB8ABzrA1crA4bPA9HVPoM2QS5t7lD9iEeIWwFq1um0ZPX5LkJWKIeXqw5IuDmOZj3nwjHd+nZkb1I+W9vnLEfEIPmKGerPHgHTcRbXK7ZB4Dxq5AwPcs04pS+rsg8NwELd+WqvTbiQZqAT3Tped6ZHPs3AO2SaZWI/6hrxv4Ld6e/ZOrfYaf+qn0EA/eGhv/dMo34TdjhPI3D8hawhNY0WZjYo3+s9Ckx2+XSZr3EW2y9wZEzfv/IBIy1IHgAton8RnjC2FJ9cME7aF0ujPkb3jkO4FtD9F+2TONdec2Zt4Aj1yTy6NRuO+fHFic4Fn4C4LiYBVtPHo5gzdcJRNGJidDgW6yicWJewX3loXoZRAMh3nK1R+ctYFGmmt8kDxdYfcb8PHZsqWZfRoyLYmh7AJ1gmeo2/+gYdE6AxmLajDw/AZcOmMYlefBXHrIvBOEbTZ9Qwq8GisZBecwnNHMVcH+tvoSZTmxinmiBVVSnd/uBykPOUSAW50HEs0TAVwdM44rGOfuH7IuYcFncZmCPjq70qYhjYLw8l2vO9WA+rZkO/8gyC6eMl3bS+FwFXKra8zdeRc5vnJyB+yqmIZETXWulZ9fvSkpJ7PFbw0SZqFIpqnL0PGYqr7ArYJoT/k3ux+w5+1p9WzzXNSbly1Gz7wfjsOYNj29YRSPuq9OVqXMVcHmwPg8ahcyStMIyVdg/3PHDBEqVHAX7RIQLPLJ2RB2e5LmScKCtJzkPgHFwDANPslIHVnajDR0zFxpYrjorIvHUHn/W6iss7NYcMZs1L9JAebn9Yej4eWgGj1y1/Xgd6GM0y7W6vIUS3BZuL+u6el/a1UeuVHCdJ4nx9ugGoUUVU4U+qZ2t18lV3rYAR8J7m44QIny4Wz7nOM5yfYPnPMtv1ZXz1/DEnouDFk8zwhf+tleuVHVmEVicCuFmk4cPD/QZv8xCNHD+PxQbjM802+pVopCNq5WrtviqZY7GxtqI2mHRnvTGuIi3GJyrgGXecrX+YiR2yuOzrb5C2KvS1jNKtgGxs5SBiB2XwWe664zF7vaj2RNqHTRd29BkTHC9SaudLf07MfRVqOtb2KcR0bdjmFil2WrGoun0QlsMhjqXq/UvAiSB/5sag56vmCpzCkwn80+AgG3RbD/ZzBxZlqn6szI8i1mf9Bzeqdh5F3u0M+BN1ojOZSBqIGCug6jTtBgJgY0Zyy8x42pAe4k0fsUhtXL33bHyUiJ/g2Rp/dX6DQxq1pYJP7OKxqezjO+0T+4C7q/alzBwcUjANctUzX5iALNf4LdMsp0ZcHm6p1ERBJMYUwHILu9UaJ2uTdq4EQDPA6gxUNM8rnka/aFeUEvjIjnLtfrzYNq1+QONi6xeo+lenDZpu7/nLuDyoH0YNEQC0XVX7ePp7q4gnsmMvQHeJyUMtt1nexP7sxxLT4GwlJh+643oL1KP87swQwx8qGIa4XO5q3znLuAgvFW0x+Y3UHJ9mXOfv6ur1TExyWuOPOvI8CT1llsn0/qOyWYYmNsCy7m55Qp7hs50NEBfYvDWGfj5f9SF1oP4eri4Y9hWj3QzyrRxEbsqYDH2v1BzDiGik8AsykPEstRtCTJQB7x/2+jEeB7QVrPOqzXGape4TuT9nRz201c0d5K7fiv4aTJbrMW2nr7B98GyIp1Z21YD9TCwLbm0HeBtB52nMmtf2JjOEjn7N7uSu/Y0r4PoNjAvmVJUj7ajvKVx0BUBl1ZsMIn108EQu/N444sYEGHxM2PKi0PaCzrxtwBEgtPI47MG+grXpj1oJ7+XhupnE9F3w2MJWEZM53vs7cYaTR1VBmkPgHfrgn3/ZRCWaHCv60beUscCHn1b3U8Q+EyMxvq2TYsIHjOeBtFjzN5Sdmmpo6unwwlp/UP2l5kgqADh9uspRXVwN3d84wTBF+lBAg6JTs3/bJmFf2/8v1irejxnVGHUtX088Exi7NXJ2vhZxMB9zHTtFFO/u9NnbFsocrZuVXNnE1gM5JGrTptvyu8s03hvqzGj0RmOpL+EQ2DXsebOSMo7apOPxO5B+s3vQwAx0n+N66k90mAkSlV7GUUzC9tijwhDYLpsclFf0q6gswuYmcpD7vHQWO607SRMrQTRPSBaA88LwzcwSO1iFemlpCcu1+o3g+mEyBXDw5cqfUaTZaitVWujc+IXhHiJVSzMTiJ12vL1u7m6inqkCFcz0/YE/libR9ozDLqkUtRvyxqUkEnAc2sbih70H0RcXcmL9AaB72KPbrB61c+FmXkreDvbcyROuklpIcZ5A73Gv8aRCqIQ5Z4Y5nPZlJXqPZd+iCSoL/fmp8W8yxF3ZMRjhRYxZqVB+wLS8M0QgyPkqh3HnC2n1urv00BzwDgewM6ZHobwqO55py/s7Xk2rX9LAc97gg1nO+dCHvXppoV2OiDcDsaC4aJ6IC63p1y1JVQm7AteapnGjDCjviuvx5FPY/hrwZ6Lg7vhrEhbnMbf+wftg1jDIzGb7dnhETUj7ppTrtrLYhK/77RM4+jI8zLrW9ecw0CYB/bTTNMiLTcQ4/LJL6v5rTZ6ooD9s891bgUjLZzkNRCu01ldt9CklS3P06pzCoEjYCkaeXstKvbIYmxqccZ5+THRgd+OtDrsm+yajCpc/YP1fVgj2aDNLYN3ynekwDmDGfMywEk8rOvqhCS3aKyAy0P1mSD6acr58DoBV00aUdd8f0+SDIbUFsAZSGhqExgLA1dUTOOrYwTEJt1TdwSg5B9CRFc5pPpuLJJ86jO30aCA+m6ep/k+X03z/syq8Fy7zvzTnuO3ua4jcBTbhyZ/Y6Sgio026HLN/hYY54X6DTvr1M437kMSTpza/PUqOOeA8M8xa9E4fiWYj4uLN48IuDRoH0wa/juScrKZXJ0IV42w+lY7+Bpjw8u1+o/BdFJoW780XDR2G/us96+wr2bPf6jm1qabce6Q8wlP47lg/1gII/xICO297NKiduKvyoP1s6BRFMysIQ00OLP/GH1BOou/Ev2l7jnnE/ClxLRXYK3n4qPho6tJwAGWhMQUh3eov9CCiuOyd/p4sgCC4Lg7Il8u0Ccrproj0DxFeQif+cunrFR7ZVGsRCl0WV8Uf3+NfXEegufMzRKDJdfErWvO0pizte7BnS7Z+v2Dzj+yxj+Lfp1xZKVohHOTUt/ksQ7BlU3SW5NAaP7OHh9W6Ss8PjZmk4D7l/M7WHcEFCXOvOiB8TXLVJdnVc+TuJbd/cJk58VwiAwT7qoUjaMSr0XBBkhbjVLVPpQEMyv6eU8bKtn3n86CoDMKAuNHcDa34NqUoEy+PGWl2jXLBm3FaGB8uYgAwSeJwyZ5jZXaewydYJOAy1Vb3qqjYoivJo9OGuhT8tnuSivX7K+D8S8hYi659CnWWbIewkfHg5ZpfDht8nJ1ZDqgSQBe1rzgMMlhdrwDsqSSlqu2XN/CkBHMcI8h6PIMzbFXXY63Dr6Egk0S96ybksr9hSwlaLcAhgVyoNvZgKIlgh1xljddBQhcY1A44tLziPdbXCwIDFFiE7dkfa27jEbtweNo9NzwJH3PNDdecJzJ3bj5LWKugSLP4Dqa2v3GqfTiOBiLDD11uX2gpvu5Ts0puv4bQp8ZMNVNvoDLVVvyY8OGfBcujsgrl7dUs+8kRgasjmyKSYJRobP1ZHzF6jXibN9N9OIVxtgp/8syjSzQiG3zGwRUyLkevjcvs0xjLwou8HH5sd+yTKMpaL3t2VsMCMA+b0+h6bqOO/2GPSZJjlNiC7RWSXTrlnvyr1NWqrennZe+hY91UQhbQgwzjU+5Slv3cs3+1zjwGcnFFgi/HxDzGSEiclBPafeemMZI4++j2qg71BpYO1twXkL8dTvsxPU9NIvCVa7VF8dlR4wRFEfB5Klqj3adBO0wHwT/iz2/eYMTXUexykLO0D5jzCfeKUc7OB7caVlAwuID+9pZomjfjU79SyqmcWkaFd8X7unPJL3FxPy5PJF7Nq1lPBb3UoqLW2bQ8RVThfNY05617d9HFSP7ZQLF3LtpwDLV3CxES1VnIYEz9c1CT/oQ0fUDRSWmwtSW9BYz+G9rJxnvTFPYUifI0CHhyFstb7AkPDcWwxCDRq7pFI38lmr1p4hJnOLNzfNOtPp6JNc3tZWrtmzGuJzg1LHJHfhWyyyIhye1nVodOVmDJuBqTY2A3w2k+LtTiWfskKBL2SLgSJI2g+ZUTHVjRtodd/PxlMl5HhSDOkf4hVU00vCh/bn7q861DBbY/e41omusojo7C8GEO7EMrRu22nXBdPpzFjrj6VMadE6k0ZznxvZXEXDEhcfgmypm4TPjmTDL2ASD/KahGuODi3oNcdG1bOUh+zwQJGare43xZavXuCqNYH/N/hAzEmGhiHD5QNG4MI3OeH+Py8UW0zL11+xvMuOC0AQbyFVTB6bRn8Y7cdL4wLMkml+s3TsYl8mCNWf5yN66rol9uGvNg7dnFpt7qWo/nGLzfsNZp6Zk9SB18gABsrwg1jbZ72VzUYCZLK65sHkw1jHdCQNxY8pD9dNBPqZkWst4XbGXg9GXRizj75ngBbNezxg8t2IWwtgcGVlJ71au2XeB8fFQT9bI7R21ZNXsn4MRsfW2CqdJnzbls1q1xfTYFHAXhP+HN9qvraI6KM3J0V91jmdwJqUsjXdiOm6gV4nDIrlJjFrNEYj/MJpPNGya8LhVNNooApbG4ebfS1X7KwQ0wVP4vxIesIrG4f5iBvmxYs0Km7uYwWdVzML3s0+Z3nPuYH0/T6NIFTACHuHYEFWaNQagkkhdFnyFc18bcWOxpHyIiaL6WMcbivBoHGKAR7xvmj09feWaewTgpuKbDr8ULoMPqpiF32z2JsVHIAjF9otcpHCacG8dZqXeT44j5Xearm0A1YZH9HenpXdI/QWvx30spoRA1rWrjhTUzLQ6D6PxYu4zAEvmY2Nb57DaV5EfoNcUYNDOvTqNWbECblNzLmL4iEJRl6GG+dZUw9erNgk4QCSXT857Eia41yE1p91wmTCtAMpAlLdmDwjRQquoPlteYV8OD5vCdzaNZz7H6i1EsgzC9P36gobzn+3VRfSpPAlSx7YK4R2bKyjPF00Wp1FAlXLVGQA4DPwyTK56x3ihK4JYuRsTv1SEJ7ZmddD3TJL01uZXu1zlHQFH/JxJ+MWrmPmSXUzje53aVgPA7kVhwYx9wvqX8zasSyGPZoQ8Qb6hEVXMAncgttmtRpyvEvthPxFXWmhucYle7Sl1RRbbe+l53p4cP14s7Nh4rQ5VlDCmIKZNSuk0tXGBwDFT/5B7CmssseDxThXCoK6pDzYG4EViskYjO9yHW37mCL/0HJzfSehqgkL3pGUa7xtbjQTgbDkrvl0xjcy1DwPMypMAEoSBPRsiFAU35GkC367pxpI0oJZGKZWq9r8T8IWw8AQ2olFXKVdtyQcOhwPfb5lGM6R/2vdYdKRB+yDouIIZByZ1F6eGqqtDw0aV2KjKeYO8g607S9IUFgLuIY8vXtRX+G0GPhHc18TpHYp24C8OmIVNnzyJx7a3d56OufY4ruu9r9N6S2dX2b8njn2+svDc2CcIhZXztdk9SBg0Vqm9FuxL9uZNan+JNYQNJS4r9a6sxT6CMryXRuo8RBm/VxtRs+O+bolx0b47b4VzOdivS9Q6A4LwKDFdo1br/9H4kGE+ykP2uSCEsxhcw1aTwzsvqIwSBS0l/NKaqg5J03LbFV5qf/lErnAejX+L6FjLVE0xWlk3c0SHeIKN+jbup0nnMzPEpDMR5q+Zqr6WVEQkNXVFTHEbUyp+yIzetEWQWkMELAJ7SyyzR1xoTa1ctUVDblLiWiHf9Vft/2ZA8nea2wRW7xybOAFIVHb+PQOm0Vx4JBgUdxxJseiKacyMrs3IdJB2EgNz4zC7YtZ+ucY4Pc2UmypgISwaNlznAjF8ZEhh8XlhwlMaYwmRe5vkuc59hnfxDEdihZtaK8UjiJiQWgphZNhXWam+ym60Km3TdeP3IBBfAt53CtEbcR1376SIk/5qfS6Dwih2rENNkSwQ35fs6MexjhPJxynJ1EbEsLEV1PwsR00mAW/axRIsB+dcMARMNC1XqYFbeo7hvUKgcBXOkTrUTq0C6BMiMMVh61+rMi3JODslXHuE6mWWaYQQhDZPFmwMyeRoqtFE8O5jaAIB1U61FZvAN29MzLokS/z2GBdtCXhskFQUJVL/QsySodCGoCMr/b8jBXV4K8OCf+XZ4P4hJlpSDDBHWqYRRlAfpzibhwel8wQlKLRW/IKxlTG9FYC4X/iyx/kFx2UlZudyBKCbdNf+xsJpW0gkalutIwGPzXBKjXfSXee0jeBgZ4wDAknAxCQ26yl49HsGLfWgL21MrG4RaP7HLTYYe2XNjWprZeR64t/JJUOQpoTHakxHLer1C1v6TZQqDe4+JNn9GktJnxnMfoJ8h2vML8KjH0JTCy2TXmuX93G9weHJggC6owBvNiCoOmFTY0fsrRaQMYBXEFHN8/hwInp/mBJrdG1lqjqroxlSBpWrzvcB/lxMt8eg4RfwxFTpx0CLybIbdRfWgfgOYu3Ha4r6Xd0or9fh7kpeGfHzbuhxj2GwALJIREbIrtxlUYz6bv4H4FGUHbBsjFUas1QzG4UaJG0NE5qSxYmhwJ5fu4EImke0Hfm4l7Stj7JDtDs4pu5Dl9kHIDhZDzDTzVvW9du7/TXquoAbn98P51znHEgaLWHwDt1fmxwp5oCVFOL2dQZ9TnP1e8Zrn261CrkKWCYO7NuiSYbmkjQOFk2yVUn1HCU4YaQ9Bq0kcPgc91xH7XTDHiRJb7m1CRBwbCkZ19DUW4cVtEl15/3MmMHEexNIMDCkGnfLTIHcVmP8hOUYWM7gpRqLsojf13v8UgPoqfu42c0mWo8+NdCnwrUMx89FA4XcBRybzN0iwkHsxWs9expIKzJ4Kmnk/wVLmXiSDP34ur9dXZaWxOoA/xlEK8RPDY9XMKimsbdiK81YnmR8iHU+EK60isZX8mQ9dwHHeo8I37WKxjmdPJjAKDgj9Z1IaWLTjivusRqEp7C5XuGWAAV3dS/YHFrgFGDxmfqFsJiwDox9KC4dk+hutt3zXaPwl0794QmhvR15l9pZt3wFPBq3JJ+mZqyNLtiST1nKW6kt/cgJ+aSHWraMxMZBpZpjEXMpZvGeNbZS+463IlqC2fJ1yzRyVT5zFXBQ7iZifSGPZwz0FcYd5lqu1t8LkCR8R8HCPT7d6issyLLby9X65wCKizsb0cAfWGQWIljPWeg29gl4jeY4k5qSJYqk3fnG+ucr4KpztDjVQ8zVh0fUNmnxVVkfqL9a/wKDmjAjg7Ej7PHBjXgVcTSDAEAJro+aXNsEfWnFc4D7tSa8GcMWsazPnbVfrgIuD9U/D6LvhJjxE5OzMpilXxKuB8AvGbYxMyl1JMAlkejOmOKQ/GPLLJycZf6sfcpVWzxjElmyuXVxE8XxkauAE8Jb7rBMI1SkI+sSxfcLzmMR1LtjejzprFOHhDMLRp0YzkMJwXnLnHVq/25nI8TioBCusoqGBFXk0nIVcLlqS0SGwPJtbuPQoFutQJCnK/BBUZsw4WdTpqpZY4GCglTz0grnp8yIg1VYo7M3MwsOZLsSKdec74G5yW7OwE8rptHlzMjG5W6Xyzb6l2OyF4Ao7F8bJFt2DfCppMJo1DrWcOdMBFqD2K7pU+Hwm+7xFxOnlWPWg/Cd6xtcqjrPRfy4GbAax7Ogiakc8rAezvV8qP8oirs/Z8aMwk75S0AzqlqmkRoO1emcuQq4XLXFj9l8z2M62upVd3bKcJZxCbgjImJJf4rd2Izu1SlM4rE06BxLGodNk69YphGpm5jlObP0yVvAUrkzfP3IlC2YhfmkPkHY7d1pYb8N4x8aHlEf7dbVLYmvIDrkgdDvay3TyK0iTW4CDsqt+xVPGpvm8cyscdTjEXIQDyX32+ZrSYioBAcWSB2yYCqJHznXFiT5SXpQY2PLNHLzqOUmYHmCctUWm2+TZ6hblUezSEJCihTcJ8GcUAmGXjFs/b0TAbEg/AY4mg+GeF9vmUYYCTfL42Xqk7eApU6RHzWxqXk43Oozwp+pTMy22ynIGRY8xwT3I7sE7VSB/GuXdif9S4POx0njTXFcAY1c7dF5C1jQ597WvBjRLIBOFittTJDkJrboNGh8Bx6dZvWpxWk0x/t7uRrrG19pmcbk8dJOGp+vgGu2uO2azJKE5jykrj/YqAfrEozmzmZ9PlGtL7GK6ut5psQkVG9JLS00njXKugAdzVGq2rcREKqPSz+wTNVdyKOAOzHob9NjL4zU6Q1+Z8brUowLwI6xD0S8eHiDMS8vbbq/5ixg5uZgfeKfWMWCBCjm0nIVcFwyt0D7DBSNtEIfbT+s7zhQzs1x8AkBsZXkuodpGmkuaaIDvCNhkocNW52Uh+JVrtri2mzG9AiSxtt+4IwDchVwf9U5mcFhBDiHldqxm3lFwf1SFKXQeb9pFarwnI+NpXyM5jype2IgGMYGvLIx33b2QNEIa7wZlzXazU/J1RzRSZp0AvbopEqfurljwikDcxWwf01hR1DeQqDZNNvqVWFUtraf0TdobOcIcrwAjcUqU/LFcGx1TDh6MYj2lJTPDyRMLHf4y4zVan6rlNisTPcPOnNY47Ai5xqe2nlBH0nUSy4tVwELx6Wq/ViMS+5Jq6j2HY9CEyRjCxTEJmSA8AqJp2btJHVKEhioBPgNk21Fq8BspiSGELh8WlrgQJp0ylVbwouaeM3ruGrkJXcB91ft8xmYH1l8pk9XelWkMknaQo0i6fhvreBIJoXXSuXOrw8U1aVpmyiwuEmGoNBMsihJVbdvjxjq8jQEnjj+S1VnFoFvifyWs3ND5stdwIHJUPKCm4pH+KAq5O6XtUZuUCTqCyCcm5IH9Co8nNyuMaW/ah/BgOgL8Rr2qHRWwcOVzgb13azBAEEpHAlGCEM2rjI0tWveJtLcBSyrkoCHKT+9xoQ5rWoJjRa/0D4LsITPpFVTeZhcNbtTjE0fdmEUm+TglC/JatboR3C9hZXeQrR8XTC4f9A5Mjh34zZNy9zitC9Z1t8nRMCjb7GgztAuCYz9DoS74FIN5GkAvRXE+wB0aHyHUC/EAAABcklEQVS8VITKMDNfsItpXNspvNMYRb8uUdWWyt9SNTQNgkmcyC8R8BAzPQWwlPvjjcIvBtiRsZhjLBXOlf7ebt4kkgQ+IQKWyYOw0V/mkG14r2ar0xdNpxey7uos/YIKbNcBODxL/zb6rGPmA1u9+W3QSu06YQL2NepR0Gq5KkTjmFNZjXSQ/J8LG5Ow2yeRPsKHyif+Ztjkmj4ytscIgeYMmCqqcHVIMG3YhArYf5P9yqa4JS5rPo1Z/3fC0/Bo/hRT/8l4P8eZ5tv4EfaD9GruSQyWMkMt/cvJNPlFzcOsifCFN/Iw4QKWyQOgtfPBEDzHcAnZuDUaBuhWAl/f7SpsWYU81q9csw8AeB6YJBIywxmNN0CwDFddkadB400/g+MYkNjkbda5szyF/eCxqRF23Yg+X2fgDdGwATxOhEeNVerxbliT2hVmq/5BWND7iXHIxsKakgK7A8lmlfoTjD+yJpmHeGztJP22iai6ksTr/wEVDiIXV+tmhgAAAABJRU5ErkJggg==;" vertex="1" parent="1">
          <mxGeometry x="760" y="-610" width="13.46" height="12" as="geometry" />
        </mxCell>
        <UserObject label="&lt;a href=&quot;https://us-east-2.console.aws.amazon.com/codesuite/codepipeline/pipelines/ReactProject/edit?region=us-east-2&quot;&gt;Edit ReactProject | CodePipeline | us-east-2 (amazon.com)&lt;/a&gt;" link="&lt;a href=&quot;https://us-east-2.console.aws.amazon.com/codesuite/codepipeline/pipelines/ReactProject/edit?region=us-east-2&quot;&gt;Edit ReactProject | CodePipeline | us-east-2 (amazon.com)&lt;/a&gt;" id="BULDakXjqyvBfwC28KaT-113">
          <mxCell style="text;whiteSpace=wrap;html=1;" vertex="1" parent="1">
            <mxGeometry x="-210" y="-370" width="350" height="40" as="geometry" />
          </mxCell>
        </UserObject>
      </root>
    </mxGraphModel>
  </diagram>
</mxfile>
